<svg preserveAspectRatio="none" overflow="visible" style="display: block;" width="41" height="41" viewBox="0 0 41 41" fill="none" xmlns="http://www.w3.org/2000/svg">
<g id="streamline-pixel:design-dropper-1" clip-path="url(#clip0_0_9)">
<path id="Vector" d="M27.3355 9.76313V11.7106H29.2958V13.6581H31.2433V15.6184H35.1511V13.6581H37.0986V9.76313H35.1511V7.80281H37.0986V5.85531H39.0461V1.9475H37.0986V0H33.1908V1.9475H31.2433V3.90781H29.2958V1.9475H25.388V3.90781H23.4277V7.80281H25.388V9.76313H27.3355Z" fill="#8B5CF6"/>
<path id="Vector_2" d="M27.3355 13.6581H29.2958V15.6184H27.3355V13.6581ZM25.388 15.6184H27.3355V17.5659H25.388V15.6184ZM23.4277 9.76313H25.388V11.7106H23.4277V9.76313ZM19.5327 17.5659V15.6184H17.5723V17.5659H15.6248V19.5263H13.6773V21.4738H11.717V27.3291H17.5723V25.3816H19.5327V23.4213H21.4802V21.4738H23.4277V19.5263H25.388V17.5659H19.5327ZM21.4802 11.7106H23.4277V13.6581H21.4802V11.7106ZM19.5327 13.6581H21.4802V15.6184H19.5327V13.6581ZM9.76953 37.0922H5.86172V39.0397H1.95391V41H19.5327V39.0397H15.6248V37.0922H11.717V35.1447H9.76953V37.0922ZM9.76953 29.2766H11.717V33.1844H9.76953V29.2766Z" fill="#8B5CF6"/>
</g>
<defs>
<clipPath id="clip0_0_9">
<rect width="41" height="41" fill="white"/>
</clipPath>
</defs>
</svg>
